<svg width="23" height="24" viewBox="0 0 23 24" fill="none" xmlns="http://www.w3.org/2000/svg">
    <path
        d="M19.2946 7.34696C19.7315 8.77785 19.9729 10.3501 19.9729 12C19.9729 13.6294 19.7375 15.1828 19.3109 16.5993C20.6402 15.1757 21.5967 13.5849 22.1096 11.9851C21.5958 10.3767 20.6335 8.77709 19.2946 7.34696Z"
        fill="#DBE178"/>
    <path
        d="M3.23668 16.618C2.80652 15.1965 2.56897 13.6365 2.56897 12C2.56897 10.3428 2.81258 8.76404 3.25311 7.32812C1.90764 8.76358 0.941814 10.3701 0.428223 11.9851C0.940912 13.5915 1.90088 15.1891 3.23668 16.618Z"
        fill="#DBE178"/>
    <path
        d="M6.92136 4.43763C8.33503 3.62145 9.80095 3.04802 11.2435 2.70947C9.35246 2.27323 7.50318 2.24079 5.86619 2.59436C4.73077 3.8367 3.82551 5.46173 3.25293 7.32807C4.26947 6.24355 5.50271 5.25669 6.92136 4.43763Z"
        fill="#FBD37A"/>
    <path
        d="M16.7068 21.371C17.8422 20.117 18.7447 18.4787 19.3107 16.5992C18.2906 17.6917 17.0508 18.6858 15.6233 19.5099C14.1908 20.337 12.7047 20.9148 11.2435 21.2515C13.1658 21.7022 15.0465 21.7358 16.7068 21.371Z"
        fill="#FBD37A"/>
    <path
        d="M15.6203 4.4503C14.1888 3.62383 12.7037 3.04628 11.2436 2.70945C13.1749 2.25621 15.0643 2.22393 16.7305 2.59372C16.7073 2.58859 16.6842 2.58354 16.661 2.57856C17.807 3.82707 18.7198 5.46472 19.2945 7.34688C18.2768 6.25994 17.0416 5.2709 15.6203 4.4503Z"
        fill="#AED073"/>
    <path
        d="M6.91827 19.5226C8.33296 20.3394 9.79998 20.913 11.2436 21.2515C9.33474 21.6914 7.46859 21.7198 5.82048 21.3552C4.69565 20.1074 3.80056 18.4817 3.23657 16.618C4.25564 17.7081 5.49344 18.7 6.91827 19.5226Z"
        fill="#AED073"/>
    <path
        d="M22.1096 11.9851C22.7857 9.87632 22.6913 7.75185 21.6648 5.97382C20.635 4.19024 18.8344 3.04467 16.661 2.57861C17.807 3.82712 18.7198 5.46477 19.2945 7.34694C20.6334 8.77706 21.5957 10.3767 22.1096 11.9851Z"
        fill="#AED073"/>
    <path
        d="M0.428173 11.9851C0.940862 13.5914 1.90082 15.1891 3.23663 16.618C3.80062 18.4818 4.6957 20.1074 5.82054 21.3552C3.67555 20.8806 1.89989 19.74 0.880172 17.9738C-0.142719 16.2021 -0.240086 14.0865 0.428173 11.9851Z"
        fill="#AED073"/>
    <path
        d="M5.86629 2.59436C3.69939 3.0624 1.90446 4.20683 0.876999 5.98645C-0.147499 7.76093 -0.243564 9.88045 0.428152 11.9851C0.941743 10.3701 1.90757 8.76352 3.25303 7.32807C3.82562 5.46172 4.73088 3.8367 5.86629 2.59436Z"
        fill="#F7A95C"/>
    <path
        d="M16.7069 21.371C17.8423 20.117 18.7448 18.4787 19.3108 16.5992C20.6402 15.1756 21.5966 13.5848 22.1096 11.985C22.7823 14.0906 22.6866 16.2112 21.6616 17.9865C20.6396 19.7566 18.8583 20.8983 16.7069 21.371Z"
        fill="#F7A95C"/>
    <path
        d="M11.2709 24C13.3276 24 15.2176 23.0161 16.707 21.371C15.0467 21.7358 13.1659 21.7022 11.2437 21.2515C9.33482 21.6914 7.46867 21.7199 5.82056 21.3552C7.31212 23.0098 9.20766 24 11.2709 24Z"
        fill="#7AC7C3"/>
    <path
        d="M11.2437 2.70949C9.35261 2.27325 7.50333 2.2408 5.86633 2.59438C7.35081 0.970111 9.22871 0 11.2709 0C13.3065 0 15.1788 0.963825 16.661 2.57859C15.0119 2.22495 13.1481 2.26254 11.2437 2.70949Z"
        fill="#7AC7C3"/>
    <mask id="mask0_203_26" style="mask-type:alpha" maskUnits="userSpaceOnUse" x="0" y="0" width="23" height="24">
        <path fill-rule="evenodd" clip-rule="evenodd"
              d="M0.876999 5.98647C-0.147499 7.76096 -0.243564 9.88048 0.428153 11.9851C-0.240106 14.0864 -0.142739 16.2021 0.880152 17.9738C1.89987 19.74 3.67553 20.8806 5.82051 21.3552C7.31207 23.0098 9.20762 24 11.2709 24C13.3276 24 15.2176 23.0161 16.7069 21.371C18.8583 20.8983 20.6396 19.7566 21.6616 17.9865C22.6866 16.2112 22.7823 14.0906 22.1096 11.9851C22.7857 9.87629 22.6913 7.75183 21.6648 5.97379C20.635 4.19021 18.8344 3.04465 16.661 2.57859C15.1788 0.963826 13.3065 0 11.2709 0C9.22867 0 7.35077 0.97011 5.86629 2.59438C3.69939 3.06242 1.90447 4.20685 0.876999 5.98647ZM6.92147 4.43765C8.33514 3.62147 9.80106 3.04804 11.2436 2.70949C12.7038 3.04631 14.1888 3.62387 15.6203 4.45033C17.0416 5.27094 18.2769 6.25998 19.2945 7.34692C19.7314 8.77781 19.9729 10.35 19.9729 12C19.9729 13.6293 19.7374 15.1828 19.3108 16.5993C18.2907 17.6917 17.0509 18.6858 15.6235 19.5099C14.1909 20.337 12.7048 20.9148 11.2436 21.2515C9.80002 20.9131 8.333 20.3394 6.91831 19.5226C5.49348 18.7 4.25568 17.7081 3.23661 16.618C2.80645 15.1965 2.56889 13.6365 2.56889 12C2.56889 10.3428 2.8125 8.76401 3.25304 7.32809C4.26957 6.24357 5.50282 5.25671 6.92147 4.43765Z"
              fill="#D9D9D9"/>
    </mask>
    <g mask="url(#mask0_203_26)">
        <ellipse cx="15.8344" cy="4.35104" rx="7.88742" ry="7.88742" fill="url(#paint0_radial_203_26)"/>
    </g>
    <defs>
        <radialGradient id="paint0_radial_203_26" cx="0" cy="0" r="1" gradientUnits="userSpaceOnUse"
                        gradientTransform="translate(15.8344 4.35104) rotate(90) scale(7.88742)">
            <stop stop-color="white"/>
            <stop offset="0.0677083" stop-color="white"/>
            <stop offset="1" stop-color="white" stop-opacity="0"/>
        </radialGradient>
    </defs>
</svg>
                    